<svg xmlns:xlink="http://www.w3.org/1999/xlink"  stroke="currentColor" fill="currentColor" stroke-width="0" role="img" viewBox="0 0 24 24" class="text-neutral-200" height="1em" width="1em" xmlns="http://www.w3.org/2000/svg"><path d="M7.172 20.36c-.914-.72-1.89-1.41-2.556-2.38-1.402-1.712-2.482-3.694-3.22-5.777-.446-1.355-.6-2.808-1.174-4.11-.602-.944.103-1.978 1.138-2.28.46-.087 1.272-.522.293-.211-.878.644-.963-.585-.063-.662.615-.082.84-.585.63-1.037-.66-.43 1.6-.903.463-1.544C1.5 1.08 4.34.835 3.64 2.285 3.473 3.4 5.624 2.08 5.125 3.368c.507.619 1.9.14 1.865 1.009.74.05.993.672 1.687.72.72.325 2.022.58 2.266 1.39-.713.566-2.364-1.165-2.443.398.215 2.31.16 4.689 1.004 6.888.4 1.332 1.37 2.38 2.244 3.418.837 1.016 1.971 1.73 3.127 2.333 1.014.478 2.107.795 3.213.994.448-.343 1.24-1.617 1.938-1.08.033.604-1.388 1.263-.067 1.196.776-.234 1.314.6 1.953-.152.588.697 2.446-.446 2.027.98-.566.364-1.392.144-1.959.646-.935-.467-1.68.418-2.715.306a19.86 19.86 0 01-3.484.29c-1.912-.15-3.865-.214-5.684-.88-1.024-.297-2.023-.881-2.924-1.464z"></path></svg>