<svg xmlns:xlink="http://www.w3.org/1999/xlink"  stroke="currentColor" fill="currentColor" stroke-width="0" viewBox="0 0 24 24" class="text-blue-500" height="1em" width="1em" xmlns="http://www.w3.org/2000/svg"><path d="M10.74 12.89v-.11c.06-.15.12-.29.19-.43a5.15 5.15 0 0 0 .26-3.74.86.86 0 0 0-.66-.74 3.12 3.12 0 0 0-2.08.61v.18a11.34 11.34 0 0 1-.06 2.41 2.37 2.37 0 0 0 .62 2 2 2 0 0 0 1.43.63 8.05 8.05 0 0 1 .3-.81zM10 8.58a.36.36 0 0 1-.09-.23.19.19 0 0 1 .09-.12.74.74 0 0 1 .48-.07c.25 0 .5.16.48.34a.51.51 0 0 1-.49.33h-.06a.63.63 0 0 1-.41-.25z"></path><path d="M7.88 11a12.58 12.58 0 0 0 .06-2.3v-.28a7 7 0 0 1 1.54-4.55c-1-.32-3.4-1-4.87.1-.9.64-1.32 1.84-1.23 3.55a24.85 24.85 0 0 0 1 4.4c.68 2.22 1.45 3.62 2.11 3.85.1 0 .41.13.86-.41.64-.76 1.23-1.41 1.5-1.7l-.19-.19A2.89 2.89 0 0 1 7.88 11zm3.5 3.4c-.16-.06-.24-.1-.42.11a2.52 2.52 0 0 0-.29.35c-.35.43-.5.58-1.51.79a2 2 0 0 0-.4.11 1 1 0 0 0 .37.16 2.21 2.21 0 0 0 2.5-.8.41.41 0 0 0 0-.35.59.59 0 0 0-.25-.37zm6.29-5.82a5.29 5.29 0 0 0 .08-.79c-.66-.08-1.42-.07-1.72.36-.58.83.56 2.88 1 3.75a4.34 4.34 0 0 1 .26.48 1.79 1.79 0 0 0 .15.31 3.72 3.72 0 0 0 .16-2.13 7.51 7.51 0 0 1-.07-1.05 6 6 0 0 1 .14-.93zm-.56-.16a.6.6 0 0 1-.32.17h-.06a.47.47 0 0 1-.44-.3c0-.14.2-.24.44-.28s.48 0 .5.15a.38.38 0 0 1-.12.26z"></path><path d="M17 4.88a6.06 6.06 0 0 1 1.37 2.57.71.71 0 0 1 0 .15 5.67 5.67 0 0 1-.09 1.06 7.11 7.11 0 0 0-.09.86 6.61 6.61 0 0 0 .07 1 4 4 0 0 1-.36 2.71l.07.08c2.22-3.49 3-7.54 2.29-8.43a4.77 4.77 0 0 0-3.81-1.8 7.34 7.34 0 0 0-1.63.16A6.17 6.17 0 0 1 17 4.88z"></path></svg>